<?xml version="1.0" standalone="no"?>
<!DOCTYPE svg PUBLIC "-//W3C//DTD SVG 20010904//EN"
 "http://www.w3.org/TR/2001/REC-SVG-20010904/DTD/svg10.dtd">
<svg version="1.0" xmlns="http://www.w3.org/2000/svg"
 width="1280.000000pt" height="1280.000000pt" viewBox="0 0 1280.000000 1280.000000"
 preserveAspectRatio="xMidYMid meet">
<metadata>
Created by potrace 1.11, written by Peter Selinger 2001-2013
</metadata>
<g transform="translate(0.000000,1280.000000) scale(0.100000,-0.100000)"
fill="#000000" stroke="none">
<path d="M6630 11374 c-962 -40 -1459 -92 -2020 -211 -532 -112 -1065 -263
-1230 -349 -103 -53 -169 -123 -231 -245 -34 -68 -191 -465 -279 -705 -87
-239 -171 -582 -155 -633 3 -10 32 -40 65 -65 33 -26 65 -56 70 -66 13 -24 -9
-39 -102 -70 -37 -12 -70 -25 -73 -30 -6 -9 -14 -66 -55 -380 -16 -129 -39
-305 -50 -390 -11 -85 -54 -414 -96 -730 -101 -775 -164 -1249 -229 -1715 -30
-214 -73 -545 -95 -735 -22 -190 -47 -387 -55 -438 -7 -52 -11 -100 -8 -108 6
-15 41 -26 161 -50 70 -14 82 -20 75 -33 -4 -9 -7 -33 -6 -54 1 -45 -1 -46
-152 -50 l-110 -2 -21 -65 c-12 -36 -37 -103 -56 -150 -23 -54 -54 -170 -87
-320 -116 -526 -206 -794 -308 -918 -62 -76 -109 -84 -324 -57 -308 38 -382
52 -983 189 -162 37 -194 36 -234 -6 -55 -60 -54 -107 7 -338 89 -333 178
-571 243 -645 118 -134 229 -162 1033 -254 1190 -138 1722 -173 3885 -261 272
-11 551 -22 620 -25 158 -7 884 -31 1395 -46 431 -13 1392 -7 1699 11 258 14
471 43 546 74 251 101 450 324 613 689 77 173 227 611 227 663 0 31 -40 60
-108 79 -31 9 -70 21 -86 27 -25 10 -27 12 -10 19 11 4 69 14 129 23 60 9 112
19 116 23 18 20 270 992 272 1049 1 23 -13 50 -51 101 -29 39 -52 73 -52 76 0
4 23 9 50 13 28 4 61 15 75 25 27 22 27 23 145 569 208 963 293 1445 349 1975
35 336 36 343 16 365 -28 31 -99 54 -144 46 -55 -9 -71 0 -71 39 0 66 -61 104
-190 121 -95 12 -103 19 -40 38 30 9 104 25 164 36 235 43 355 80 374 117 5
10 15 50 22 88 12 65 47 203 184 719 63 237 98 434 121 681 29 305 77 518 128
573 11 12 45 30 74 38 61 18 29 24 515 -96 193 -48 243 -57 274 -50 148 34
227 249 228 620 1 193 -13 288 -65 435 -41 118 -74 171 -153 250 -82 81 -179
134 -302 165 -106 27 -910 131 -1386 180 -414 42 -518 51 -1303 105 -1088 75
-2200 101 -2955 69z m1900 -149 c1046 -50 2182 -152 3017 -272 300 -43 329
-49 310 -62 -81 -53 -165 -164 -206 -269 -41 -106 -57 -211 -81 -522 -34 -445
-30 -420 -199 -1236 -66 -318 -143 -696 -170 -839 -28 -143 -56 -282 -61 -310
l-11 -50 -69 -3 c-38 -1 -113 -12 -167 -24 -71 -15 -150 -23 -283 -27 -160 -5
-185 -8 -188 -22 -2 -12 21 -30 75 -60 l78 -44 -95 -7 c-186 -15 -290 -39
-290 -68 0 -20 42 -29 275 -60 132 -17 265 -37 295 -43 l54 -12 -69 -29 c-106
-44 -137 -65 -133 -89 4 -28 66 -42 255 -57 79 -6 151 -14 158 -17 9 -3 13
-14 10 -27 -2 -11 -48 -253 -100 -536 -128 -684 -203 -1056 -333 -1645 -85
-386 -111 -489 -123 -487 -119 28 -269 40 -338 26 -56 -11 -37 -35 85 -109
123 -74 214 -153 214 -186 0 -10 -25 -113 -55 -227 -68 -257 -128 -518 -156
-682 -12 -69 -23 -127 -25 -129 -2 -2 -79 0 -171 5 -209 13 -273 9 -273 -15 0
-27 40 -58 95 -74 l50 -15 -62 -28 c-40 -18 -63 -35 -63 -45 0 -26 91 -59 209
-76 58 -8 119 -22 134 -30 35 -18 35 -15 -43 -254 -156 -479 -407 -824 -668
-923 -83 -31 -191 -49 -249 -40 -37 5 -51 15 -93 62 -89 100 -155 251 -210
481 -21 86 -25 94 -54 106 -17 7 -142 21 -281 30 -264 18 -739 16 -965 -5
-111 -10 -1091 -32 -1099 -24 -2 2 6 15 19 29 13 14 21 27 18 30 -3 3 -18 -11
-33 -31 l-28 -37 -261 6 c-194 5 -345 15 -586 41 -346 37 -524 52 -710 61
-137 7 -514 29 -840 50 -129 8 -399 22 -600 30 -630 26 -831 42 -1190 91 -272
36 -254 32 -235 60 8 13 23 36 33 51 9 15 11 24 5 20 -7 -5 -25 -28 -39 -53
-18 -31 -31 -43 -43 -40 -9 2 -74 12 -146 22 -71 10 -134 21 -138 25 -5 3 8
29 29 55 62 81 121 223 181 433 31 108 59 200 63 204 4 4 50 17 104 27 161 33
172 50 55 88 -41 13 -89 35 -106 48 -48 36 -44 72 22 222 71 160 89 213 115
347 12 61 24 119 27 129 5 17 13 18 107 12 294 -18 325 -19 341 -6 13 11 10
18 -25 56 -33 36 -60 80 -60 98 0 2 35 5 79 8 91 5 151 31 165 71 6 15 7 29 5
32 -8 8 -254 74 -393 105 -70 16 -130 30 -132 32 -2 2 1 35 7 73 5 39 21 182
34 320 19 195 28 252 40 261 8 6 38 14 66 18 64 9 95 23 115 53 15 23 14 26
-7 49 -12 13 -52 35 -89 49 -87 33 -93 45 -80 173 21 207 52 388 145 862 94
477 110 589 190 1300 36 322 79 694 95 827 17 134 30 258 30 276 0 50 13 57
78 41 60 -14 170 -17 212 -5 43 12 35 36 -24 69 -30 17 -57 35 -60 41 -3 5 29
12 74 16 81 7 130 28 154 67 17 27 -1 37 -128 69 -122 30 -179 54 -208 86 -16
18 -11 43 113 508 135 509 188 683 239 791 43 89 121 171 195 205 55 25 266
89 292 89 7 0 0 -25 -17 -62 -31 -69 -90 -242 -89 -261 0 -7 22 49 48 124 40
110 73 191 86 206 3 5 284 73 462 112 407 90 736 148 1170 206 l43 6 -21 -48
c-31 -69 -99 -262 -98 -276 0 -7 17 36 39 95 21 59 51 134 65 167 32 70 13 63
245 86 238 23 534 43 880 60 173 8 344 17 380 19 150 9 1299 -5 1590 -19z
m3588 -342 c-26 -2 -71 -2 -100 0 -29 2 -8 3 47 3 55 0 79 -1 53 -3z m-278
-66 c0 -2 -12 -14 -27 -28 l-28 -24 24 28 c23 25 31 32 31 24z m606 -59 l29
-33 -32 29 c-18 17 -33 31 -33 33 0 8 8 1 36 -29z m-13 -35 c-7 -2 -19 -2 -25
0 -7 3 -2 5 12 5 14 0 19 -2 13 -5z m-96 -9 c-3 -3 -12 -4 -19 -1 -8 3 -5 6 6
6 11 1 17 -2 13 -5z m-60 -10 c-3 -3 -12 -4 -19 -1 -8 3 -5 6 6 6 11 1 17 -2
13 -5z m-90 -10 c-3 -3 -12 -4 -19 -1 -8 3 -5 6 6 6 11 1 17 -2 13 -5z m40
-80 c-3 -3 -12 -4 -19 -1 -8 3 -5 6 6 6 11 1 17 -2 13 -5z m140 -20 c-3 -3
-12 -4 -19 -1 -8 3 -5 6 6 6 11 1 17 -2 13 -5z m140 -20 c-3 -3 -12 -4 -19 -1
-8 3 -5 6 6 6 11 1 17 -2 13 -5z m-850 -136 c-3 -8 -6 -5 -6 6 -1 11 2 17 5
13 3 -3 4 -12 1 -19z m-10 -80 c-3 -8 -6 -5 -6 6 -1 11 2 17 5 13 3 -3 4 -12
1 -19z m980 -40 c-3 -7 -5 -2 -5 12 0 14 2 19 5 13 2 -7 2 -19 0 -25z m-990
-50 c-3 -7 -5 -2 -5 12 0 14 2 19 5 13 2 -7 2 -19 0 -25z m-10 -150 c-3 -7 -5
-2 -5 12 0 14 2 19 5 13 2 -7 2 -19 0 -25z m1000 -60 c-3 -8 -6 -5 -6 6 -1 11
2 17 5 13 3 -3 4 -12 1 -19z m-1010 -55 c-3 -10 -5 -2 -5 17 0 19 2 27 5 18 2
-10 2 -26 0 -35z m1000 -15 c-3 -8 -6 -5 -6 6 -1 11 2 17 5 13 3 -3 4 -12 1
-19z m-10 -60 c-3 -8 -6 -5 -6 6 -1 11 2 17 5 13 3 -3 4 -12 1 -19z m-960 -64
c-3 -3 -12 -4 -19 -1 -8 3 -5 6 6 6 11 1 17 -2 13 -5z m120 -20 c-3 -3 -12 -4
-19 -1 -8 3 -5 6 6 6 11 1 17 -2 13 -5z m70 -10 c-3 -3 -12 -4 -19 -1 -8 3 -5
6 6 6 11 1 17 -2 13 -5z m50 -10 c-3 -3 -12 -4 -19 -1 -8 3 -5 6 6 6 11 1 17
-2 13 -5z m70 -10 c-3 -3 -12 -4 -19 -1 -8 3 -5 6 6 6 11 1 17 -2 13 -5z m400
-70 c-3 -3 -12 -4 -19 -1 -8 3 -5 6 6 6 11 1 17 -2 13 -5z m70 -10 c-3 -3 -12
-4 -19 -1 -8 3 -5 6 6 6 11 1 17 -2 13 -5z m50 -10 c-3 -3 -12 -4 -19 -1 -8 3
-5 6 6 6 11 1 17 -2 13 -5z m-12310 -6971 c-3 -10 -5 -4 -5 12 0 17 2 24 5 18
2 -7 2 -21 0 -30z m850 -99 c-3 -3 -12 -4 -19 -1 -8 3 -5 6 6 6 11 1 17 -2 13
-5z m50 -10 c-3 -3 -12 -4 -19 -1 -8 3 -5 6 6 6 11 1 17 -2 13 -5z m80 -10
c-3 -3 -12 -4 -19 -1 -8 3 -5 6 6 6 11 1 17 -2 13 -5z m50 -10 c-3 -3 -12 -4
-19 -1 -8 3 -5 6 6 6 11 1 17 -2 13 -5z m80 -10 c-3 -3 -12 -4 -19 -1 -8 3 -5
6 6 6 11 1 17 -2 13 -5z m-940 -20 c-3 -3 -12 -4 -19 -1 -8 3 -5 6 6 6 11 1
17 -2 13 -5z m1080 0 c-3 -3 -12 -4 -19 -1 -8 3 -5 6 6 6 11 1 17 -2 13 -5z
m60 -10 c-3 -3 -12 -4 -19 -1 -8 3 -5 6 6 6 11 1 17 -2 13 -5z m80 -10 c-3 -3
-12 -4 -19 -1 -8 3 -5 6 6 6 11 1 17 -2 13 -5z m60 -10 c-3 -3 -12 -4 -19 -1
-8 3 -5 6 6 6 11 1 17 -2 13 -5z m80 -10 c-3 -3 -12 -4 -19 -1 -8 3 -5 6 6 6
11 1 17 -2 13 -5z m60 -10 c-3 -3 -12 -4 -19 -1 -8 3 -5 6 6 6 11 1 17 -2 13
-5z m80 -10 c-3 -3 -12 -4 -19 -1 -8 3 -5 6 6 6 11 1 17 -2 13 -5z m140 -20
c-3 -3 -12 -4 -19 -1 -8 3 -5 6 6 6 11 1 17 -2 13 -5z m140 -20 c-3 -3 -12 -4
-19 -1 -8 3 -5 6 6 6 11 1 17 -2 13 -5z m50 -10 c-3 -3 -12 -4 -19 -1 -8 3 -5
6 6 6 11 1 17 -2 13 -5z m-1860 -10 c-3 -3 -12 -4 -19 -1 -8 3 -5 6 6 6 11 1
17 -2 13 -5z m1950 0 c-3 -3 -12 -4 -19 -1 -8 3 -5 6 6 6 11 1 17 -2 13 -5z
m60 -10 c-3 -3 -12 -4 -19 -1 -8 3 -5 6 6 6 11 1 17 -2 13 -5z m90 -10 c-3 -3
-12 -4 -19 -1 -8 3 -5 6 6 6 11 1 17 -2 13 -5z m66 -11 c-7 -2 -19 -2 -25 0
-7 3 -2 5 12 5 14 0 19 -2 13 -5z m120 -10 c-7 -2 -19 -2 -25 0 -7 3 -2 5 12
5 14 0 19 -2 13 -5z m74 -9 c-3 -3 -12 -4 -19 -1 -8 3 -5 6 6 6 11 1 17 -2 13
-5z m181 -11 c-10 -2 -28 -2 -40 0 -13 2 -5 4 17 4 22 1 32 -1 23 -4z m120
-10 c-10 -2 -26 -2 -35 0 -10 3 -2 5 17 5 19 0 27 -2 18 -5z m255 -10 c-13 -2
-35 -2 -50 0 -16 2 -5 4 22 4 28 0 40 -2 28 -4z m180 -10 c-13 -2 -33 -2 -45
0 -13 2 -3 4 22 4 25 0 35 -2 23 -4z m280 -10 c-13 -2 -35 -2 -50 0 -16 2 -5
4 22 4 28 0 40 -2 28 -4z m175 -10 c-10 -2 -26 -2 -35 0 -10 3 -2 5 17 5 19 0
27 -2 18 -5z m190 -10 c-10 -2 -26 -2 -35 0 -10 3 -2 5 17 5 19 0 27 -2 18 -5z
m125 -10 c-7 -2 -21 -2 -30 0 -10 3 -4 5 12 5 17 0 24 -2 18 -5z m195 -10
c-10 -2 -28 -2 -40 0 -13 2 -5 4 17 4 22 1 32 -1 23 -4z m130 -10 c-10 -2 -26
-2 -35 0 -10 3 -2 5 17 5 19 0 27 -2 18 -5z m210 -10 c-10 -2 -28 -2 -40 0
-13 2 -5 4 17 4 22 1 32 -1 23 -4z m140 -10 c-10 -2 -26 -2 -35 0 -10 3 -2 5
17 5 19 0 27 -2 18 -5z m220 -10 c-10 -2 -28 -2 -40 0 -13 2 -5 4 17 4 22 1
32 -1 23 -4z m95 -10 c-7 -2 -19 -2 -25 0 -7 3 -2 5 12 5 14 0 19 -2 13 -5z
m140 -10 c-7 -2 -19 -2 -25 0 -7 3 -2 5 12 5 14 0 19 -2 13 -5z m80 -10 c-7
-2 -19 -2 -25 0 -7 3 -2 5 12 5 14 0 19 -2 13 -5z m110 -10 c-7 -2 -19 -2 -25
0 -7 3 -2 5 12 5 14 0 19 -2 13 -5z m84 -9 c-3 -3 -12 -4 -19 -1 -8 3 -5 6 6
6 11 1 17 -2 13 -5z m2291 -1 c-16 -2 -40 -2 -55 0 -16 2 -3 4 27 4 30 0 43
-2 28 -4z m475 0 c-13 -2 -33 -2 -45 0 -13 2 -3 4 22 4 25 0 35 -2 23 -4z
m-2660 -10 c-7 -2 -19 -2 -25 0 -7 3 -2 5 12 5 14 0 19 -2 13 -5z m1985 0
c-10 -2 -26 -2 -35 0 -10 3 -2 5 17 5 19 0 27 -2 18 -5z m870 0 c-10 -2 -26
-2 -35 0 -10 3 -2 5 17 5 19 0 27 -2 18 -5z m-2781 -9 c-3 -3 -12 -4 -19 -1
-8 3 -5 6 6 6 11 1 17 -2 13 -5z m1791 -1 c-10 -2 -26 -2 -35 0 -10 3 -2 5 17
5 19 0 27 -2 18 -5z m1089 1 c-3 -3 -12 -4 -19 -1 -8 3 -5 6 6 6 11 1 17 -2
13 -5z m-2754 -11 c-7 -2 -21 -2 -30 0 -10 3 -4 5 12 5 17 0 24 -2 18 -5z
m1450 0 c-13 -2 -35 -2 -50 0 -16 2 -5 4 22 4 28 0 40 -2 28 -4z m-1315 -10
c-10 -2 -28 -2 -40 0 -13 2 -5 4 17 4 22 1 32 -1 23 -4z m1014 0 c-40 -2 -103
-2 -140 0 -37 2 -4 3 73 3 77 0 107 -2 67 -3z m-6495 -199 c-3 -3 -12 -4 -19
-1 -8 3 -5 6 6 6 11 1 17 -2 13 -5z m166 -21 c-7 -2 -19 -2 -25 0 -7 3 -2 5
12 5 14 0 19 -2 13 -5z m180 -20 c-7 -2 -19 -2 -25 0 -7 3 -2 5 12 5 14 0 19
-2 13 -5z m174 -19 c-3 -3 -12 -4 -19 -1 -8 3 -5 6 6 6 11 1 17 -2 13 -5z
m176 -21 c-7 -2 -19 -2 -25 0 -7 3 -2 5 12 5 14 0 19 -2 13 -5z m184 -19 c-3
-3 -12 -4 -19 -1 -8 3 -5 6 6 6 11 1 17 -2 13 -5z m110 -10 c-3 -3 -12 -4 -19
-1 -8 3 -5 6 6 6 11 1 17 -2 13 -5z m76 -11 c-7 -2 -19 -2 -25 0 -7 3 -2 5 12
5 14 0 19 -2 13 -5z m194 -19 c-3 -3 -12 -4 -19 -1 -8 3 -5 6 6 6 11 1 17 -2
13 -5z m110 -10 c-3 -3 -12 -4 -19 -1 -8 3 -5 6 6 6 11 1 17 -2 13 -5z m86
-11 c-7 -2 -21 -2 -30 0 -10 3 -4 5 12 5 17 0 24 -2 18 -5z m230 -20 c-7 -2
-21 -2 -30 0 -10 3 -4 5 12 5 17 0 24 -2 18 -5z m235 -20 c-10 -2 -26 -2 -35
0 -10 3 -2 5 17 5 19 0 27 -2 18 -5z m145 -10 c-7 -2 -19 -2 -25 0 -7 3 -2 5
12 5 14 0 19 -2 13 -5z m110 -10 c-7 -2 -21 -2 -30 0 -10 3 -4 5 12 5 17 0 24
-2 18 -5z m164 -9 c-3 -3 -12 -4 -19 -1 -8 3 -5 6 6 6 11 1 17 -2 13 -5z m121
-11 c-10 -2 -26 -2 -35 0 -10 3 -2 5 17 5 19 0 27 -2 18 -5z m165 -10 c-7 -2
-19 -2 -25 0 -7 3 -2 5 12 5 14 0 19 -2 13 -5z m125 -10 c-10 -2 -26 -2 -35 0
-10 3 -2 5 17 5 19 0 27 -2 18 -5z m155 -10 c-7 -2 -19 -2 -25 0 -7 3 -2 5 12
5 14 0 19 -2 13 -5z m145 -10 c-10 -2 -28 -2 -40 0 -13 2 -5 4 17 4 22 1 32
-1 23 -4z m185 -10 c-7 -2 -21 -2 -30 0 -10 3 -4 5 12 5 17 0 24 -2 18 -5z
m145 -10 c-10 -2 -28 -2 -40 0 -13 2 -5 4 17 4 22 1 32 -1 23 -4z m185 -10
c-7 -2 -19 -2 -25 0 -7 3 -2 5 12 5 14 0 19 -2 13 -5z m170 -10 c-13 -2 -33
-2 -45 0 -13 2 -3 4 22 4 25 0 35 -2 23 -4z m250 -10 c-7 -2 -21 -2 -30 0 -10
3 -4 5 12 5 17 0 24 -2 18 -5z m180 -10 c-13 -2 -35 -2 -50 0 -16 2 -5 4 22 4
28 0 40 -2 28 -4z m4318 -10 c13 -16 12 -17 -3 -4 -17 13 -22 21 -14 21 2 0
10 -8 17 -17z m-4038 0 c-13 -2 -33 -2 -45 0 -13 2 -3 4 22 4 25 0 35 -2 23
-4z m240 -10 c-18 -2 -48 -2 -65 0 -18 2 -4 4 32 4 36 0 50 -2 33 -4z m310
-10 c-13 -2 -33 -2 -45 0 -13 2 -3 4 22 4 25 0 35 -2 23 -4z m235 -10 c-15 -2
-42 -2 -60 0 -18 2 -6 4 27 4 33 0 48 -2 33 -4z m320 -10 c-10 -2 -28 -2 -40
0 -13 2 -5 4 17 4 22 1 32 -1 23 -4z m380 -10 c-27 -2 -69 -2 -95 0 -27 2 -5
3 47 3 52 0 74 -1 48 -3z m630 -10 c-26 -2 -71 -2 -100 0 -29 2 -8 3 47 3 55
0 79 -1 53 -3z m935 -10 c-95 -2 -251 -2 -345 0 -95 1 -18 3 172 3 190 0 267
-2 173 -3z m1005 0 c-16 -2 -40 -2 -55 0 -16 2 -3 4 27 4 30 0 43 -2 28 -4z"/>
<path d="M7023 11163 c-36 -78 -112 -293 -104 -293 4 0 17 32 30 72 13 39 43
118 67 175 45 109 51 142 7 46z"/>
<path d="M8566 11108 c-43 -93 -108 -278 -98 -278 4 0 22 44 40 98 18 53 48
132 67 175 42 98 35 102 -9 5z"/>
<path d="M10138 10976 c-42 -93 -109 -286 -99 -286 5 0 14 21 21 48 8 26 35
103 62 170 53 132 61 171 16 68z"/>
<path d="M5015 10858 c-15 -35 -59 -141 -99 -237 l-71 -174 -70 -19 c-97 -26
-257 -105 -364 -178 -49 -34 -95 -68 -101 -76 -7 -8 -32 -15 -59 -15 -43 -2
-44 -2 -12 -8 30 -5 32 -8 18 -19 -14 -12 -25 -8 -77 24 -66 40 -85 40 -105
-4 -8 -17 -21 -22 -82 -28 -40 -3 -76 -10 -79 -15 -3 -5 8 -6 23 -4 15 3 54 9
85 14 l57 8 16 -56 c9 -31 17 -60 19 -65 1 -6 -29 -48 -67 -95 -117 -146 -201
-291 -272 -470 l-41 -104 -199 -71 c-110 -39 -206 -75 -214 -80 -8 -5 -11 -19
-8 -35 3 -14 0 -54 -7 -89 -8 -34 -10 -62 -6 -62 5 0 11 22 15 48 3 26 10 54
14 60 6 10 45 6 176 -18 92 -16 169 -30 170 -30 2 0 5 -71 7 -157 6 -170 28
-275 83 -384 14 -27 23 -54 20 -59 -4 -6 -30 -11 -58 -12 l-52 -1 48 -6 47 -6
-45 -67 c-84 -126 -51 -161 75 -78 l80 52 53 -49 c89 -81 233 -145 362 -161
l60 -7 -4 -211 c-3 -187 -2 -212 13 -227 39 -39 53 -18 156 235 l92 226 87 27
c125 39 302 134 420 226 l102 79 55 -35 c59 -38 74 -41 92 -23 17 17 15 47 -7
118 l-19 61 70 87 c118 147 202 291 273 471 l41 104 199 70 c110 38 206 74
213 79 16 13 16 43 -1 56 -6 6 -82 22 -167 37 -85 14 -163 28 -172 31 -15 4
-17 21 -17 132 0 79 -6 157 -16 207 -17 80 -56 191 -82 232 -13 20 -10 28 39
102 29 44 60 81 68 82 10 0 11 2 3 6 -7 2 -13 13 -13 23 0 9 -7 23 -15 30 -12
10 -26 6 -76 -24 -37 -22 -74 -36 -97 -37 -36 -1 -37 -1 -7 -8 25 -5 27 -8 11
-14 -13 -5 -31 4 -66 33 -107 90 -241 149 -373 165 l-59 8 8 208 c7 224 5 239
-41 239 -18 0 -28 -12 -50 -62z m-70 -554 l-115 -539 -251 -251 c-179 -179
-249 -256 -244 -265 5 -8 70 -99 145 -204 75 -104 140 -195 144 -202 3 -6 -43
-243 -104 -526 -60 -284 -110 -524 -110 -534 0 -10 -5 -25 -11 -33 -7 -10 -8
66 -4 243 5 209 4 258 -7 261 -7 2 -42 8 -78 14 -115 18 -206 61 -304 145
l-39 33 49 32 49 31 25 -23 c59 -56 219 -126 286 -126 l24 0 0 220 0 219 60 7
c33 4 60 8 60 10 0 7 -152 209 -159 212 -4 1 -13 -28 -20 -66 l-12 -68 -301
-300 c-165 -164 -297 -292 -293 -284 5 8 30 47 56 86 44 65 47 73 33 92 -26
38 -75 173 -90 250 -13 71 -21 338 -10 349 3 3 21 2 41 -1 l35 -7 0 -115 c0
-66 7 -148 16 -192 17 -82 63 -203 79 -205 5 -1 76 97 158 218 139 206 150
220 177 217 27 -3 28 0 43 65 l16 68 -39 55 c-36 52 -40 55 -76 52 -22 -2
-210 -21 -419 -42 -208 -22 -380 -38 -382 -36 -1 1 87 33 197 71 l199 69 26
76 c61 174 181 385 294 520 80 95 76 81 52 159 -12 38 -21 72 -21 76 0 5 61
-77 136 -181 75 -104 144 -196 153 -204 13 -14 30 -15 109 -7 50 5 92 13 92
18 0 5 11 32 24 61 43 95 197 481 194 489 -4 9 -150 -41 -218 -76 -79 -40
-187 -110 -247 -162 l-53 -44 -30 18 c-16 9 -30 20 -30 23 0 9 161 135 220
172 92 59 211 115 305 143 50 15 95 33 101 39 10 10 138 316 165 394 6 18 13
31 15 29 2 -2 -48 -246 -111 -543z m329 96 c87 -27 192 -90 252 -151 l47 -48
73 50 c40 27 74 49 76 49 2 0 -131 -135 -296 -300 -165 -166 -306 -300 -316
-300 -9 0 -37 -3 -61 -6 -43 -6 -45 -5 -77 39 -17 25 -32 48 -32 51 0 3 13 6
29 6 16 0 43 3 60 6 27 6 31 10 31 40 0 29 6 38 41 59 127 81 374 247 377 254
2 5 -19 28 -45 51 -80 72 -248 140 -343 140 -29 0 -30 2 -30 46 l0 47 73 -6
c39 -3 103 -15 141 -27z m-130 -218 c3 -5 -1 -32 -9 -60 -7 -29 -10 -52 -5
-52 4 0 11 19 14 43 11 70 16 73 80 44 32 -15 68 -35 82 -46 l24 -19 -110 -71
c-61 -39 -113 -71 -115 -71 -3 0 -5 54 -5 120 0 112 1 120 19 120 11 0 22 -4
25 -8z m-473 -165 c-26 -64 -50 -120 -54 -123 -7 -7 -157 83 -157 94 0 17 246
159 257 148 1 -1 -19 -54 -46 -119z m955 -122 c23 -68 27 -103 32 -228 4 -140
6 -147 26 -152 43 -10 293 -54 344 -61 62 -8 79 -24 27 -24 -35 0 -688 -64
-767 -75 -36 -5 -39 -3 -78 49 l-40 55 14 66 c8 36 16 68 18 70 2 2 85 -11
183 -29 l180 -32 3 90 c3 97 -15 196 -50 277 l-20 48 33 47 32 47 18 -34 c10
-19 30 -70 45 -114z m-121 -104 c7 -29 17 -85 20 -126 7 -74 7 -75 -16 -75
-28 0 -168 26 -174 32 -3 2 30 55 71 117 42 62 78 111 80 108 3 -3 11 -28 19
-56z m-626 -245 c15 -8 34 -22 41 -31 12 -14 10 -20 -12 -41 l-25 -26 -34 21
c-47 29 -94 26 -154 -8 -54 -31 -98 -85 -121 -148 -17 -49 -17 -86 0 -127 14
-33 13 -35 -14 -61 l-28 -27 -16 31 c-18 34 -23 107 -11 161 20 94 108 205
195 247 53 26 138 30 179 9z m721 -291 c0 -17 -57 -151 -100 -234 -57 -111
-203 -321 -223 -321 -2 0 -9 18 -16 40 -12 40 -11 41 33 99 66 86 140 211 176
299 37 89 40 93 83 109 36 13 47 15 47 8z m-187 -132 c-19 -48 -56 -112 -107
-188 l-40 -60 -28 90 c-15 50 -28 97 -28 105 0 11 33 27 108 52 59 20 108 37
109 37 1 1 -5 -16 -14 -36z m-1330 -135 l48 -10 -18 -28 c-79 -122 -139 -210
-143 -210 -12 0 -32 100 -37 184 l-6 89 54 -7 c30 -4 76 -12 102 -18z m1101
-318 c75 -104 141 -192 146 -195 6 -3 10 -10 10 -15 0 -5 -42 17 -94 49 l-94
59 -48 -41 c-68 -56 -186 -132 -261 -168 -60 -29 -197 -79 -214 -79 -14 0 34
102 50 107 118 40 349 167 389 215 8 11 -5 23 -61 58 -40 24 -97 60 -128 80
l-57 35 17 35 c14 31 21 36 66 41 28 3 71 7 96 7 l47 2 136 -190z m-259 -6
c41 -26 75 -50 75 -53 0 -14 -232 -151 -255 -151 -2 0 -2 7 1 15 4 8 18 16 33
16 24 2 24 2 3 6 -24 5 -24 12 3 76 8 20 14 25 18 16 3 -9 6 -6 6 7 1 22 30
114 37 114 2 0 37 -21 79 -46z m-565 -134 l0 -120 -27 6 c-77 19 -194 75 -193
92 1 7 199 140 213 141 4 1 7 -53 7 -119z"/>
<path d="M4133 9846 c-60 -76 -145 -210 -185 -291 -43 -85 -91 -205 -85 -211
5 -5 418 136 431 147 8 7 -103 409 -113 408 -3 0 -25 -24 -48 -53z m92 -229
c15 -53 26 -99 24 -100 -9 -7 -213 -76 -216 -74 -1 2 15 38 36 79 39 76 120
203 126 196 1 -2 15 -47 30 -101z"/>
<path d="M4530 9641 l-45 -6 -12 -55 c-7 -30 -12 -61 -10 -68 1 -7 36 21 77
63 78 79 79 78 -10 66z"/>
<path d="M6758 10310 c-25 -99 -43 -180 -39 -180 8 0 95 349 88 356 -2 3 -25
-76 -49 -176z"/>
<path d="M8311 10280 c-24 -93 -41 -174 -39 -180 1 -5 23 71 48 170 25 99 43
180 39 180 -3 0 -25 -76 -48 -170z"/>
<path d="M6950 10331 c0 -8 350 -4 375 4 6 2 -77 4 -182 4 -109 1 -193 -3
-193 -8z"/>
<path d="M6280 10320 l-95 -6 95 -1 c52 0 140 3 195 7 l100 7 -100 -1 c-55 0
-143 -3 -195 -6z"/>
<path d="M7711 10326 c2 -2 90 -6 194 -8 109 -3 158 -2 115 2 -79 8 -316 13
-309 6z"/>
<path d="M8500 10300 c14 -4 99 -9 190 -12 91 -3 147 -2 125 2 -51 10 -348 19
-315 10z"/>
<path d="M9906 10244 c-22 -87 -14 -94 9 -9 9 36 15 68 13 71 -3 3 -13 -25
-22 -62z"/>
<path d="M9280 10260 c25 -4 110 -10 190 -13 104 -4 122 -3 65 3 -123 12 -308
20 -255 10z"/>
<path d="M10002 10215 c7 -7 370 -36 376 -30 3 3 3 5 1 5 -289 26 -385 32
-377 25z"/>
<path d="M9847 10150 c-99 -25 -187 -96 -187 -152 0 -31 15 -38 87 -38 85 0
133 -38 133 -107 0 -40 -72 -102 -157 -136 -117 -47 -139 -49 -195 -21 -116
59 -290 70 -380 25 -69 -35 -120 -91 -116 -127 3 -29 4 -29 80 -34 85 -6 115
-24 138 -81 11 -26 10 -34 -14 -69 -20 -30 -45 -49 -108 -79 -46 -22 -108 -47
-138 -54 -37 -10 -56 -20 -58 -32 -4 -15 2 -16 50 -10 46 6 141 29 203 49 16
5 26 -2 48 -39 16 -25 33 -45 38 -45 17 0 9 16 -26 57 l-34 40 38 31 38 30 43
-76 c52 -93 47 -85 59 -78 5 4 -14 41 -44 86 l-54 81 19 32 c27 44 26 112 -2
152 -26 39 -77 75 -106 75 -32 0 -27 16 9 29 80 28 191 2 357 -83 61 -31 121
-65 135 -76 l24 -19 -23 -102 c-13 -56 -25 -109 -26 -118 -2 -8 -37 30 -82 90
-81 107 -106 136 -91 109 8 -13 164 -250 171 -259 8 -10 23 12 16 25 -7 12 33
229 44 243 5 6 88 -60 176 -140 74 -66 98 -81 98 -58 0 19 -139 177 -198 225
-31 26 -56 53 -55 61 0 8 -5 12 -12 9 -7 -2 -37 13 -65 34 l-52 39 28 6 c88
19 120 27 145 40 27 14 28 14 59 -35 18 -28 36 -47 41 -44 13 8 12 11 -27 53
l-35 40 33 30 c18 17 36 31 39 31 3 0 25 -36 49 -80 25 -44 48 -76 53 -71 5 5
-14 44 -41 86 l-50 78 19 36 c37 70 17 149 -50 198 -21 16 -28 28 -24 43 16
62 274 -18 456 -142 54 -36 184 -142 266 -217 36 -32 51 -38 51 -21 0 13 -108
145 -157 192 -70 66 -265 208 -327 237 -98 46 -236 68 -309 51z m7 -104 c-4
-10 -13 -15 -21 -12 -8 3 -20 6 -26 7 -7 0 2 7 18 14 35 15 38 14 29 -9z"/>
<path d="M10762 10155 c3 -3 79 -12 169 -20 173 -16 215 -18 208 -11 -3 4
-340 36 -373 36 -5 0 -7 -2 -4 -5z"/>
<path d="M3526 10082 c-5 -21 -15 -34 -29 -37 -12 -2 -87 -16 -167 -31 -80
-15 -152 -31 -160 -36 -11 -7 -9 -8 8 -5 117 25 323 60 327 55 4 -3 -8 -65
-25 -138 -17 -72 -29 -137 -27 -143 2 -7 12 24 21 68 10 44 29 124 42 179 14
54 23 103 21 110 -2 6 -7 -4 -11 -22z"/>
<path d="M10135 9860 c9 -15 165 -251 172 -259 2 -3 7 0 13 5 5 5 -26 55 -81
129 -87 116 -122 158 -104 125z"/>
<path d="M10010 9827 c0 -5 119 -202 136 -226 2 -1 8 0 14 4 7 4 -1 23 -23 53
-19 26 -55 76 -81 112 -25 35 -46 61 -46 57z"/>
<path d="M6612 9699 c-7 -30 -26 -68 -47 -93 -41 -50 -47 -95 -14 -103 12 -4
18 -11 15 -20 -4 -8 -8 -33 -11 -56 -4 -36 -3 -34 11 16 l16 57 50 0 c44 0 54
-4 84 -34 51 -51 48 -92 -12 -145 -46 -40 -161 -92 -237 -106 -42 -8 -49 -15
-38 -34 7 -10 25 -10 97 4 48 9 103 23 122 31 50 20 54 19 85 -31 16 -25 33
-42 38 -39 6 3 -6 26 -26 50 l-36 43 33 30 c18 17 35 31 38 31 3 0 25 -36 49
-80 41 -73 61 -97 61 -70 0 6 -23 44 -50 85 l-50 75 20 37 c21 40 26 87 11
125 -14 38 -72 88 -115 99 l-40 11 33 14 c72 30 180 12 324 -55 115 -53 202
-111 327 -217 l105 -89 -60 -6 c-78 -8 -123 -28 -180 -80 -38 -35 -46 -48 -43
-73 l3 -31 77 -5 c67 -4 80 -9 107 -34 70 -67 40 -132 -91 -195 -46 -22 -108
-47 -138 -54 -37 -10 -56 -20 -58 -32 -4 -15 2 -16 50 -10 46 6 141 29 203 49
16 5 26 -2 48 -39 16 -25 33 -45 38 -45 17 0 9 16 -26 57 l-34 40 39 31 38 32
43 -78 c49 -91 45 -86 58 -78 5 4 -13 41 -44 87 l-53 82 19 31 c26 43 25 111
-3 151 -26 39 -77 75 -106 75 -32 0 -27 16 9 29 123 43 386 -63 598 -239 35
-29 59 -55 54 -59 -11 -7 -57 -230 -50 -238 5 -4 15 39 38 157 6 36 16 69 20
75 6 5 30 -11 62 -43 50 -50 77 -64 77 -42 0 6 -29 46 -64 89 -45 55 -63 85
-61 102 1 13 0 16 -2 7 -2 -10 -6 -18 -9 -18 -2 0 -49 36 -103 79 -172 137
-274 196 -357 208 -39 5 -51 13 -87 57 -109 132 -311 299 -439 363 -119 59
-274 73 -362 34 -27 -11 -50 -21 -51 -21 -2 0 3 23 10 50 7 28 10 50 6 50 -4
0 -13 -23 -19 -51z"/>
<path d="M8176 9699 c-12 -34 -76 -352 -72 -356 2 -3 12 31 21 74 9 43 27 125
40 183 13 58 21 107 19 109 -2 2 -6 -2 -8 -10z"/>
<path d="M9431 9339 c29 -46 60 -96 68 -111 15 -26 32 -33 33 -15 0 11 -130
195 -143 203 -6 3 13 -32 42 -77z"/>
<path d="M7005 9400 c9 -15 165 -252 172 -259 2 -3 7 0 12 5 6 5 -28 58 -86
134 -95 126 -113 148 -98 120z"/>
<path d="M3366 9362 c-7 -12 -29 -143 -24 -147 2 -3 11 31 19 75 15 77 16 89
5 72z"/>
<path d="M6892 9340 c44 -73 121 -196 124 -199 3 -3 8 0 13 5 6 5 -18 47 -60
104 -70 95 -107 138 -77 90z"/>
<path d="M5960 9018 c-79 -41 -129 -103 -111 -137 10 -18 21 -21 72 -21 67 0
108 -17 133 -54 48 -75 -23 -153 -194 -211 -41 -14 -81 -25 -91 -25 -22 0 -35
-18 -21 -32 13 -13 134 6 212 33 l55 19 19 -22 18 -23 -43 -6 -44 -6 47 -1
c32 -2 50 -7 56 -18 5 -9 15 -14 21 -10 6 4 9 12 6 17 -4 5 13 9 38 9 31 0 47
-5 51 -15 3 -8 10 -15 17 -15 6 0 9 6 6 14 -4 11 7 15 50 18 44 2 57 0 64 -14
10 -19 29 -24 29 -8 0 11 -148 220 -156 220 -6 0 -6 0 58 -100 26 -41 48 -78
48 -82 0 -5 -24 -8 -54 -8 l-54 0 -41 64 -40 64 21 50 c15 35 19 59 14 85 -11
61 -82 127 -136 127 -33 0 -23 16 19 28 80 24 168 7 312 -60 94 -43 96 -46 80
-108 -5 -19 -12 -53 -16 -75 l-7 -40 -39 45 -40 45 38 -60 c80 -125 136 -205
144 -205 19 0 7 23 -44 91 l-53 70 19 94 20 93 41 -25 c62 -40 101 -70 218
-170 102 -88 128 -105 128 -84 0 5 -33 48 -73 96 -64 75 -225 217 -280 247
-15 7 -17 18 -13 56 5 39 4 41 -3 14 -5 -18 -11 -35 -14 -38 -2 -3 -26 9 -53
26 -81 50 -158 72 -269 77 -98 5 -101 4 -165 -29z m173 -413 c15 -31 27 -58
27 -61 0 -3 -21 -4 -46 -2 -37 2 -51 9 -67 30 l-19 26 33 31 c19 17 36 31 39
31 3 0 18 -25 33 -55z"/>
<path d="M7645 8940 c9 -15 165 -251 172 -259 2 -3 7 0 13 5 5 5 -26 55 -81
129 -87 116 -122 158 -104 125z"/>
<path d="M7520 8907 c0 -5 119 -202 136 -226 2 -1 8 0 14 4 7 4 -1 23 -23 53
-19 26 -55 76 -81 112 -25 35 -46 61 -46 57z"/>
<path d="M9587 8813 c-14 -48 -68 -335 -65 -345 2 -6 20 72 40 173 20 101 35
185 33 187 -2 2 -6 -5 -8 -15z"/>
<path d="M3215 8589 c-3 -19 -11 -65 -18 -104 l-13 -70 -100 -8 c-110 -9 -168
-16 -163 -22 2 -2 60 1 128 6 68 6 125 8 127 6 2 -2 -2 -36 -9 -75 -8 -40 -11
-72 -7 -72 4 0 13 34 19 75 12 73 13 74 44 79 75 13 79 14 29 13 -61 -2 -59
-7 -36 113 8 45 13 84 10 87 -2 3 -7 -10 -11 -28z"/>
<path d="M6823 8543 c53 -2 141 -2 195 0 53 1 9 3 -98 3 -107 0 -151 -2 -97
-3z"/>
<path d="M7583 8543 c53 -2 141 -2 195 0 53 1 9 3 -98 3 -107 0 -151 -2 -97
-3z"/>
<path d="M8353 8543 c54 -2 139 -2 190 0 51 1 7 3 -98 3 -104 0 -146 -2 -92
-3z"/>
<path d="M9020 8538 c0 -4 87 -7 193 -7 105 1 185 3 177 5 -37 7 -370 10 -370
2z"/>
<path d="M9795 8530 c19 -8 373 -14 364 -6 -2 2 -89 6 -194 9 -106 3 -181 2
-170 -3z"/>
<path d="M5400 8520 c-15 -5 16 -6 75 -3 55 3 102 7 104 9 9 8 -155 2 -179 -6z"/>
<path d="M10643 8513 c54 -2 139 -2 190 0 51 1 7 3 -98 3 -104 0 -146 -2 -92
-3z"/>
<path d="M7833 8325 c-132 -36 -245 -115 -427 -300 -107 -109 -139 -136 -174
-146 -66 -19 -136 0 -262 70 -148 83 -181 91 -410 101 -194 9 -270 17 -270 29
1 3 9 45 19 94 9 48 15 87 11 87 -3 0 -14 -39 -23 -86 -9 -48 -18 -89 -20 -91
-3 -2 -51 10 -108 27 -259 77 -454 86 -632 28 -109 -35 -177 -108 -193 -206
-8 -50 12 -146 41 -199 17 -31 20 -45 12 -51 -21 -17 -336 -162 -474 -218 -74
-30 -225 -89 -336 -130 -231 -87 -326 -136 -449 -235 -117 -94 -196 -188 -346
-414 -141 -211 -217 -351 -287 -530 -57 -144 -67 -231 -41 -335 36 -139 103
-224 261 -330 126 -84 129 -89 121 -143 -17 -106 -18 -128 -6 -156 16 -39 92
-97 203 -157 88 -46 89 -47 82 -78 -3 -17 -8 -53 -10 -81 -4 -40 -2 -35 11 25
8 41 17 76 19 78 2 2 37 -7 77 -21 87 -29 205 -53 304 -62 149 -14 374 32 476
98 91 58 186 179 217 278 13 39 43 59 92 59 44 0 80 -22 139 -87 l53 -58 -44
-6 -44 -6 48 -1 48 -2 40 -84 c48 -104 49 -125 4 -170 -26 -26 -48 -37 -92
-45 -222 -42 -319 -76 -455 -158 -140 -84 -293 -232 -367 -354 -28 -46 -27
-96 4 -141 20 -29 56 -52 197 -123 95 -48 241 -122 323 -165 169 -88 326 -160
430 -198 63 -22 92 -26 285 -32 211 -8 217 -9 330 -45 305 -99 344 -107 490
-108 74 0 173 1 220 3 81 3 83 3 30 9 -46 5 -51 8 -31 15 36 13 120 95 144
141 25 49 35 192 18 261 -7 25 -30 88 -51 139 -49 113 -54 182 -17 236 28 42
87 75 148 84 l47 7 -29 -164 c-16 -89 -29 -169 -29 -177 0 -38 11 7 34 144 38
217 34 205 62 205 44 0 267 51 595 136 179 46 389 98 467 114 221 46 405 105
523 166 17 8 33 13 35 11 3 -3 -1 -41 -9 -86 -8 -44 -11 -81 -7 -81 4 0 13 40
20 90 l13 90 76 47 c42 26 122 82 178 125 l102 77 188 10 188 9 -183 -3 -183
-2 69 71 c177 184 255 342 255 521 0 137 -49 239 -189 399 -101 114 -116 142
-117 220 -1 75 48 488 69 575 16 67 58 159 106 228 46 68 86 162 93 218 18
140 -82 271 -210 276 -82 3 -876 60 -1040 74 -93 8 -182 15 -197 15 -25 0 -28
4 -28 31 0 17 5 40 12 52 23 43 58 193 58 248 0 122 -62 218 -158 247 -49 15
-74 14 -139 -3z m87 -239 c0 -24 -10 -46 -32 -74 -18 -22 -38 -48 -44 -58 -8
-12 -7 -1 2 34 7 28 14 66 16 83 7 55 58 69 58 15z m-91 -85 c-63 -313 -30
-440 131 -515 54 -25 138 -26 500 -8 409 21 855 9 906 -23 44 -28 33 -93 -23
-140 -34 -28 -36 -29 -31 -8 3 13 3 25 -2 28 -10 6 -20 -19 -20 -49 0 -13 -10
-31 -22 -42 -30 -27 -94 -128 -112 -177 -8 -23 -24 -85 -36 -137 l-20 -95
-160 3 c-109 2 -160 0 -160 -7 0 -9 205 -18 308 -14 7 1 11 -6 8 -16 -34 -114
-76 -394 -77 -520 -2 -95 0 -105 30 -166 22 -45 69 -106 148 -192 137 -150
167 -205 166 -301 -1 -156 -140 -309 -355 -392 -162 -63 -249 -80 -405 -80
-89 0 -143 -4 -143 -10 0 -6 43 -10 108 -11 l107 0 -75 -30 c-41 -17 -174 -78
-295 -136 -274 -131 -355 -164 -475 -197 -145 -39 -274 -55 -505 -62 -245 -7
-343 -22 -421 -61 -181 -91 -270 -301 -218 -512 21 -85 49 -138 118 -229 56
-73 67 -107 44 -130 -28 -28 -148 2 -389 98 -229 92 -293 111 -394 117 -79 5
-104 2 -212 -26 -173 -44 -221 -42 -327 13 -47 25 -118 67 -158 94 -139 94
-244 147 -396 202 l-152 55 58 58 c147 151 398 299 622 367 203 61 238 100
251 275 4 60 8 116 8 123 1 6 10 12 21 12 11 0 20 5 20 10 0 6 -7 10 -16 10
-12 0 -14 8 -8 45 4 28 2 45 -4 45 -5 0 -13 -20 -16 -45 -6 -39 -11 -45 -31
-45 -17 0 -35 17 -71 68 -59 83 -121 159 -196 239 -42 45 -58 69 -58 90 0 47
-11 55 -59 44 -32 -7 -51 -6 -77 5 -56 24 -150 18 -201 -11 -55 -33 -78 -78
-105 -203 -22 -107 -37 -143 -76 -184 -25 -27 -29 -28 -129 -28 -123 0 -140
-18 -20 -22 l82 -3 -59 -19 c-49 -15 -80 -17 -180 -13 -127 5 -175 15 -319 67
-112 41 -121 50 -110 109 4 25 8 82 8 126 0 95 -25 155 -90 220 -46 46 -75 61
-198 106 -114 41 -163 74 -187 125 -42 87 -21 165 89 323 148 213 321 409 509
578 l94 83 109 0 c71 0 109 4 109 11 0 7 -32 9 -95 7 -52 -2 -95 -1 -95 2 1
13 263 197 380 267 166 99 263 137 515 203 277 73 315 86 352 122 48 45 73
102 73 168 0 65 -21 115 -79 188 -24 29 -40 60 -37 67 7 20 86 30 231 29 147
-1 256 -24 425 -90 95 -37 95 -37 291 -43 l197 -6 153 -77 c90 -44 178 -81
211 -88 154 -31 281 34 517 264 132 129 196 185 212 186 3 0 -3 -40 -12 -89z
m-2089 -2863 c0 -19 -2 -20 -10 -8 -13 19 -13 30 0 30 6 0 10 -10 10 -22z"/>
<path d="M6166 7503 c-3 -10 -10 -44 -15 -77 -6 -34 -18 -64 -28 -71 -14 -11
-15 -17 -6 -37 8 -19 8 -40 -3 -89 -16 -77 -17 -89 -5 -89 5 0 14 29 21 64 11
58 15 66 43 77 17 7 46 13 64 13 29 0 34 4 43 36 5 19 10 39 10 44 0 4 -29 6
-65 4 -55 -3 -64 -2 -61 12 3 8 8 33 11 55 4 22 9 48 12 58 2 9 0 17 -6 17 -5
0 -12 -8 -15 -17z"/>
<path d="M7721 7418 c-33 -163 -57 -314 -53 -322 9 -17 21 25 47 174 14 80 28
157 31 173 3 15 1 27 -4 27 -6 0 -15 -24 -21 -52z"/>
<path d="M6394 7241 l-32 -19 29 -58 c16 -31 29 -63 29 -70 0 -18 9 -18 53 1
l36 15 -16 37 c-25 62 -53 113 -61 113 -4 0 -21 -9 -38 -19z"/>
<path d="M5949 7227 c-8 -7 -32 -31 -54 -55 l-38 -43 29 -30 28 -29 58 57 58
57 -27 28 c-30 32 -32 32 -54 15z"/>
<path d="M5735 6996 c-6 -8 -28 -35 -49 -60 l-39 -47 28 -29 29 -30 32 31 31
30 172 -3 c132 -2 171 0 171 10 0 9 -40 12 -167 12 -160 0 -166 1 -150 18 22
25 22 29 -10 57 -33 29 -35 29 -48 11z"/>
<path d="M6508 6947 c-21 -5 -38 -14 -38 -20 0 -7 8 -41 19 -77 18 -63 19 -65
51 -63 44 2 51 11 40 57 l-9 39 149 -6 c82 -4 151 -3 154 2 6 9 -122 21 -236
21 -76 0 -78 1 -78 24 0 32 -7 35 -52 23z"/>
<path d="M4965 6900 c-4 -7 62 -10 189 -10 124 0 196 4 196 10 0 6 -70 10
-189 10 -116 0 -192 -4 -196 -10z"/>
<path d="M7255 6870 c4 -6 80 -10 196 -10 124 0 188 3 184 10 -4 6 -80 10
-196 10 -124 0 -188 -3 -184 -10z"/>
<path d="M8013 6857 c-8 -13 20 -16 205 -19 151 -2 199 1 180 14 -10 6 -381
11 -385 5z"/>
<path d="M7525 6738 c-44 -22 -81 -42 -83 -43 -2 -1 24 -45 58 -96 44 -68 59
-100 55 -117 -3 -12 -8 -42 -12 -67 l-6 -45 -53 0 -54 0 0 -46 0 -46 70 4 c61
3 68 1 53 -10 -30 -23 -135 -74 -188 -92 -27 -9 -50 -20 -50 -24 0 -10 109
-176 115 -176 3 1 32 41 65 90 32 49 83 116 111 147 l52 58 16 -55 c24 -78 46
-213 46 -276 0 -30 1 -54 3 -54 1 0 44 20 94 45 l93 44 -61 80 c-33 44 -80
120 -105 168 l-45 88 33 29 c60 52 179 125 239 147 32 12 59 24 59 27 0 6 -97
159 -111 176 -4 4 -17 -11 -30 -35 -59 -118 -193 -289 -211 -271 -15 15 -46
184 -53 292 -4 55 -10 100 -14 100 -3 -1 -42 -19 -86 -42z m97 -416 c-15 -12
-17 -10 -20 17 -3 25 -8 31 -26 31 -23 0 -23 1 -13 53 l11 52 32 -70 c30 -65
32 -71 16 -83z"/>
<path d="M5482 6720 l-54 -50 22 -35 c25 -41 23 -41 102 34 l48 45 -27 28
c-15 15 -29 28 -32 28 -3 -1 -30 -23 -59 -50z"/>
<path d="M6025 6738 c-3 -18 -19 -103 -34 -188 -16 -85 -27 -157 -25 -159 12
-13 24 28 48 165 14 84 29 166 32 183 4 19 2 31 -4 31 -6 0 -14 -15 -17 -32z"/>
<path d="M4401 6524 c-29 -162 -33 -209 -17 -193 5 5 66 338 66 362 0 9 -3 17
-8 17 -4 0 -22 -84 -41 -186z"/>
<path d="M6600 6642 c-19 -8 -36 -15 -38 -17 -4 -4 54 -115 72 -139 14 -17 16
-17 47 12 27 25 30 33 21 45 -7 8 -25 37 -40 64 l-27 50 -35 -15z"/>
<path d="M5270 6540 c-31 -44 -63 -121 -53 -130 4 -5 24 -11 44 -15 33 -6 37
-4 42 17 4 14 18 42 32 63 l26 38 -27 28 c-15 16 -31 29 -35 29 -4 0 -17 -13
-29 -30z"/>
<path d="M6804 6415 c-7 -19 -14 -37 -14 -39 0 -7 128 -46 150 -46 15 0 30 34
30 70 0 7 -125 50 -145 50 -3 0 -13 -16 -21 -35z"/>
<path d="M7115 6372 c-3 -7 -5 -26 -5 -41 0 -26 4 -29 46 -35 26 -3 64 -6 85
-6 39 0 39 0 39 40 0 47 -1 47 -92 52 -51 3 -69 0 -73 -10z"/>
<path d="M5197 6244 c-5 -6 0 -99 9 -141 4 -23 26 -29 69 -17 19 5 20 9 11 85
l-10 79 -36 0 c-20 0 -39 -3 -43 -6z"/>
<path d="M5897 6010 c-11 -28 -68 -362 -63 -368 12 -11 17 9 47 177 27 156 34
235 16 191z"/>
<path d="M7432 5784 c-29 -168 -33 -208 -17 -192 6 6 65 333 65 361 0 9 -3 17
-8 17 -4 0 -22 -84 -40 -186z"/>
<path d="M4291 5908 c-6 -29 -20 -105 -31 -168 -11 -63 -23 -126 -26 -138 -3
-16 -1 -23 7 -20 8 3 24 67 40 159 15 85 31 169 34 187 3 18 2 32 -4 32 -5 0
-14 -24 -20 -52z"/>
<path d="M5263 5933 c-27 -5 -27 1 -6 -95 13 -62 20 -77 32 -74 9 3 29 8 44
12 19 4 26 11 23 21 -3 7 -11 43 -18 78 -12 69 -13 70 -75 58z"/>
<path d="M9030 5827 c0 -1 -13 -79 -30 -172 -32 -184 -34 -205 -22 -205 5 0
21 73 36 163 15 89 30 174 33 190 3 16 1 27 -6 27 -6 0 -11 -1 -11 -3z"/>
<path d="M7328 5189 l-3 -31 -192 1 c-108 1 -193 -2 -193 -7 0 -5 83 -11 185
-14 102 -3 188 -7 190 -10 2 -2 -6 -67 -19 -144 -13 -76 -22 -141 -20 -143 11
-11 19 22 49 194 24 141 29 185 19 185 -7 0 -14 -14 -16 -31z"/>
<path d="M6170 5160 c0 -6 72 -10 195 -10 123 0 195 4 195 10 0 6 -72 10 -195
10 -123 0 -195 -4 -195 -10z"/>
<path d="M7700 5140 c0 -6 72 -10 195 -10 123 0 195 4 195 10 0 6 -72 10 -195
10 -123 0 -195 -4 -195 -10z"/>
<path d="M5610 4398 c-12 -68 -28 -154 -35 -191 -6 -37 -8 -70 -3 -73 11 -7
13 -2 47 197 35 199 34 189 22 189 -5 0 -19 -55 -31 -122z"/>
<path d="M4715 8158 c-10 -26 -64 -322 -60 -326 5 -6 10 14 43 191 26 132 31
172 17 135z"/>
<path d="M9434 8044 c-4 -22 -19 -104 -35 -184 -15 -80 -26 -147 -23 -149 6
-6 11 14 44 192 17 93 29 171 26 174 -2 3 -8 -12 -12 -33z"/>
<path d="M3086 7853 c-11 -38 -57 -327 -54 -342 2 -9 18 67 35 169 28 169 34
222 19 173z"/>
<path d="M4577 7443 c-2 -4 -7 -30 -10 -58 l-6 -50 14 55 c13 50 14 73 2 53z"/>
<path d="M2955 7075 c-4 -27 -15 -95 -24 -150 l-17 -100 -54 -7 c-30 -3 -81
-6 -112 -7 -31 -1 -60 -6 -63 -11 -4 -7 2 -9 17 -6 12 3 65 8 117 11 l94 7 -5
-31 c-2 -16 -1 -28 4 -25 4 3 8 16 8 29 0 21 6 24 73 33 l72 11 -67 -3 c-81
-4 -77 -16 -48 157 12 65 19 124 17 131 -3 6 -8 -11 -12 -39z"/>
<path d="M3538 6863 c-49 -2 -88 -7 -88 -11 0 -6 169 -1 325 11 62 4 -118 4
-237 0z"/>
<path d="M9565 6809 c29 -6 370 -11 350 -4 -5 2 -93 5 -195 7 -102 3 -171 1
-155 -3z"/>
<path d="M10375 6790 c73 -8 311 -13 304 -6 -2 2 -87 6 -189 8 -107 3 -156 2
-115 -2z"/>
<path d="M2822 6234 c-12 -78 -25 -166 -27 -195 -3 -30 9 25 25 121 16 96 29
184 27 195 -1 11 -13 -44 -25 -121z"/>
<path d="M2696 5429 c-15 -100 -25 -183 -22 -186 2 -3 8 17 12 44 3 26 17 110
29 186 12 75 19 137 15 137 -3 0 -18 -82 -34 -181z"/>
<path d="M2463 5213 c54 -2 139 -2 190 0 51 1 7 3 -98 3 -104 0 -146 -2 -92
-3z"/>
<path d="M3140 5215 c33 -8 360 -12 360 -4 0 4 -84 7 -187 7 -104 0 -181 -1
-173 -3z"/>
<path d="M10161 5179 c-90 -5 -166 -11 -169 -14 -9 -9 352 7 368 16 11 6 8 8
-10 7 -14 0 -99 -5 -189 -9z"/>
<path d="M2605 4829 c-12 -69 -45 -294 -45 -308 0 -8 2 -12 4 -10 7 7 57 341
52 346 -3 3 -7 -10 -11 -28z"/>
<path d="M4006 4285 c-15 -91 -30 -175 -33 -187 -3 -17 -2 -19 5 -8 5 8 12 33
16 55 3 22 17 100 30 173 13 72 21 132 17 132 -4 0 -19 -74 -35 -165z"/>
<path d="M8779 4329 c-15 -65 -64 -369 -60 -369 7 0 71 363 65 369 -2 2 -4 2
-5 0z"/>
<path d="M2472 3965 c-12 -77 -24 -162 -27 -190 -2 -27 9 27 25 120 17 94 29
179 27 190 -1 11 -13 -43 -25 -120z"/>
<path d="M5496 3733 c-3 -15 -10 -54 -16 -85 l-11 -58 -187 -2 -187 -3 183 -2
c209 -4 195 5 167 -108 -16 -66 -19 -102 -6 -70 13 31 73 346 68 352 -3 2 -8
-8 -11 -24z"/>
<path d="M7076 3693 c-39 -204 -59 -299 -66 -319 -5 -13 -6 -24 -1 -24 13 0
88 356 78 367 -3 2 -8 -8 -11 -24z"/>
<path d="M3207 3696 c-21 -8 -56 -26 -77 -40 -37 -25 -47 -26 -182 -28 l-143
-2 138 -3 c75 -2 137 -6 137 -9 0 -2 -7 -15 -16 -29 -12 -18 -13 -28 -4 -44 9
-18 20 -21 71 -21 94 0 149 -39 149 -106 0 -36 -51 -89 -117 -122 -50 -25
-158 -62 -182 -62 -24 0 -37 -18 -23 -32 13 -13 134 6 212 33 30 10 56 19 57
19 1 0 15 -19 30 -42 15 -24 28 -45 29 -47 2 -1 8 0 14 4 6 4 -3 22 -25 48
-19 22 -35 43 -34 46 1 9 69 64 73 60 1 -2 22 -39 45 -81 23 -43 47 -78 53
-78 14 0 7 16 -46 99 l-46 71 20 37 c27 50 26 102 -3 144 -28 41 -82 79 -113
79 -13 0 -24 4 -24 8 0 13 71 32 118 32 94 0 304 -93 447 -197 68 -49 74 -56
64 -76 -9 -20 -9 -20 4 -4 13 16 21 12 100 -58 81 -71 107 -87 107 -66 0 12
-157 198 -170 203 -7 2 -5 31 7 88 17 81 20 85 48 91 l30 7 -28 1 c-28 1 -29
2 -23 44 4 30 3 36 -3 22 -5 -11 -10 -30 -10 -42 -1 -23 -3 -23 -132 -23 -128
0 -132 1 -202 34 -40 19 -96 39 -125 45 -71 15 -178 13 -225 -3z m668 -128
c-4 -24 -11 -60 -16 -81 l-10 -37 -99 76 c-55 42 -100 79 -100 80 0 2 52 4
116 4 l116 0 -7 -42z"/>
<path d="M2143 3623 c54 -2 139 -2 190 0 51 1 7 3 -98 3 -104 0 -146 -2 -92
-3z"/>
<path d="M4341 3606 c2 -2 87 -6 189 -9 111 -3 157 -2 115 3 -73 8 -311 13
-304 6z"/>
<path d="M9838 3591 c-80 -3 -149 -8 -152 -12 -8 -8 293 2 334 11 l35 8 -35
-1 c-19 0 -101 -3 -182 -6z"/>
<path d="M5940 3569 c47 -4 135 -7 195 -6 l110 0 -100 7 c-55 4 -143 7 -195 7
l-95 0 85 -8z"/>
<path d="M8626 3492 c-10 -51 -20 -92 -21 -92 -2 0 -23 8 -47 18 -111 48 -267
53 -348 12 -136 -68 -165 -179 -42 -163 74 10 142 -37 142 -99 0 -41 -14 -63
-63 -96 -50 -34 -190 -92 -222 -92 -31 0 -54 -27 -31 -36 22 -9 191 23 230 43
30 15 31 15 51 -12 42 -58 53 -70 60 -63 4 4 -9 26 -29 50 l-37 42 38 32 38
32 43 -79 c24 -43 48 -79 53 -79 18 0 8 22 -41 95 l-50 74 20 33 c52 85 -6
204 -111 228 l-34 7 30 13 c72 29 163 19 282 -31 l42 -18 -16 -46 c-8 -25 -13
-49 -9 -52 3 -3 11 15 18 41 7 25 16 46 22 46 15 0 136 -69 191 -109 28 -19
98 -77 157 -128 102 -88 128 -105 128 -84 0 5 -32 47 -71 94 -65 79 -176 174
-326 281 -29 21 -53 42 -53 47 0 6 7 41 16 79 8 38 14 77 12 87 -2 9 -11 -25
-22 -75z"/>
<path d="M8913 3564 c6 -7 369 -5 376 1 2 3 -83 5 -189 5 -106 0 -191 -3 -187
-6z"/>
<path d="M7450 3553 c160 -7 310 -7 310 0 0 4 -84 6 -187 5 -104 -1 -159 -3
-123 -5z"/>
<path d="M8150 3553 c0 -5 57 -7 127 -5 236 4 259 8 66 10 -106 1 -193 -1
-193 -5z"/>
<path d="M3617 3288 c66 -99 84 -132 73 -136 -8 -3 -32 -22 -52 -42 -64 -63
-46 -116 34 -108 117 13 189 -82 122 -161 -14 -17 -58 -46 -97 -65 -126 -61
-124 -63 -61 69 31 64 54 118 52 120 -2 2 -30 -52 -63 -120 -44 -94 -64 -125
-78 -125 -10 0 -27 -5 -38 -11 -26 -13 -8 -39 24 -34 71 10 180 36 205 49 l30
16 33 -51 c22 -35 35 -47 42 -40 8 8 -1 23 -28 51 l-39 40 34 30 c19 16 38 29
42 30 4 0 26 -36 50 -80 26 -49 46 -76 52 -70 6 6 -10 39 -42 86 l-50 77 19
36 c23 43 25 101 4 141 -19 38 -73 78 -114 86 -29 6 -31 8 -15 17 75 42 181
23 360 -63 130 -63 198 -110 354 -246 98 -84 110 -92 110 -74 0 14 -109 146
-162 196 -63 60 -250 199 -305 228 -109 55 -265 79 -340 53 -50 -17 -40 -25
-157 131 -42 56 -79 102 -81 102 -3 0 34 -59 82 -132z"/>
<path d="M3452 3308 c28 -46 60 -98 71 -115 19 -33 37 -43 37 -22 0 11 -148
219 -156 219 -2 0 19 -37 48 -82z"/>
<path d="M2340 3285 c-22 -67 -59 -166 -94 -247 -19 -44 -13 -51 8 -10 26 51
117 304 113 316 -2 6 -14 -20 -27 -59z"/>
<path d="M8646 3043 c77 -115 106 -148 103 -118 -1 11 -177 245 -185 245 -2 0
34 -57 82 -127z"/>
<path d="M8453 3110 c45 -80 121 -200 127 -200 21 0 12 20 -41 93 -33 45 -69
93 -80 107 l-21 25 15 -25z"/>
<path d="M7490 3081 c-59 -12 -126 -50 -164 -92 -61 -66 -45 -99 46 -99 33 0
72 -7 88 -15 30 -16 60 -61 60 -91 0 -31 -47 -80 -107 -111 -60 -32 -172 -73
-197 -73 -20 0 -31 -19 -19 -31 12 -12 168 15 222 37 45 19 46 19 70 -18 11
-18 25 -39 30 -47 5 -7 14 -10 20 -6 8 4 0 20 -24 46 -19 21 -35 42 -35 47 0
4 15 19 34 34 39 31 40 31 79 -47 33 -65 52 -90 60 -78 3 5 -17 44 -45 86 -50
76 -50 77 -35 109 24 53 29 77 22 109 -10 47 -70 107 -119 120 l-41 12 30 13
c77 34 203 6 375 -82 117 -60 173 -100 320 -228 l101 -87 -22 -30 c-12 -17
-19 -32 -16 -35 5 -5 26 25 60 88 88 161 128 240 124 244 -3 3 -33 -49 -68
-116 l-63 -122 -39 43 c-138 155 -299 290 -427 358 -91 49 -242 78 -320 62z"/>
<path d="M5220 2863 c-44 -91 -78 -168 -75 -171 5 -5 115 218 149 301 34 83 2
28 -74 -130z"/>
<path d="M6789 2820 c-46 -93 -81 -170 -77 -170 9 0 171 330 165 336 -2 3 -42
-72 -88 -166z"/>
<path d="M4076 2898 c55 -89 178 -257 185 -252 5 3 6 11 2 18 -18 28 -186 246
-190 246 -2 0 -1 -6 3 -12z"/>
<path d="M3950 2867 c0 -18 135 -217 147 -217 10 0 -2 23 -33 68 -67 94 -114
156 -114 149z"/>
<path d="M7786 2765 c86 -136 159 -234 167 -226 6 6 -21 49 -73 118 -88 114
-126 158 -94 108z"/>
<path d="M7652 2738 c8 -13 41 -65 73 -116 35 -57 61 -90 67 -84 6 6 -21 51
-68 116 -42 58 -79 106 -81 106 -3 0 1 -10 9 -22z"/>
<path d="M9248 2003 c-71 -2 -128 -7 -128 -11 0 -8 204 -4 310 7 l75 8 -65 -1
c-36 0 -122 -2 -192 -3z"/>
</g>
</svg>
